#Comment line ignore any data following # character 
#Hierarchical Translation and Rotation (.htr) file 
[Header]	
#Header keywords are followed by a single value 
FileType HTR		#Single word string
DataType HTRS		#Translation followed by rotation and scale data
FileVersion 1		#integer
NumSegments 84		#integer
NumFrames 2		#integer
DataFrameRate 30		#integer, data frame rate in this file
EulerRotationOrder ZYX
CalibrationUnits mm
RotationUnits Degrees
GlobalAxisofGravity Y
BoneLengthAxis Y
ScaleFactor 1.00
[SegmentNames&Hierarchy]
#CHILD	PARENT
MASTER GLOBAL
root MASTER
chest root
L_mid_tent01 root
R_mid_tent01 root
spine01 root
Bip01_Neck chest
L_humerus chest
R_humerus chest
weapon_bone chest
Bip01_Head Bip01_Neck
eye_left_bone Bip01_Head
eye_right_bone Bip01_Head
L_forearm L_humerus
L_front_hand L_forearm
L_weapon_bone L_forearm
L_front_hand01_01 L_front_hand
L_front_hand02_01 L_front_hand
L_front_hand03_01 L_front_hand
L_front_hand01_02 L_front_hand01_01
L_front_hand02_02 L_front_hand02_01
L_front_hand03_02 L_front_hand03_01
R_forearm R_humerus
R_front_hand R_forearm
R_weapon_bone R_forearm
R_front_hand01_01 R_front_hand
R_front_hand02_01 R_front_hand
R_front_hand03_01 R_front_hand
R_front_hand01_02 R_front_hand01_01
R_front_hand02_02 R_front_hand02_01
R_front_hand03_02 R_front_hand03_01
null_rope01_connect L_mid_tent01
Rope1_Seg01 null_rope01_connect
Rope1_Seg02 Rope1_Seg01
Rope1_Seg03 Rope1_Seg02
Rope1_Seg04 Rope1_Seg03
Rope1_Seg05 Rope1_Seg04
Rope1_Seg06 Rope1_Seg05
Rope1_Seg07 Rope1_Seg06
Rope1_Seg09 Rope1_Seg07
L_mid_hand01 Rope1_Seg09
L_mid_hand02 Rope1_Seg09
L_mid_hand03 Rope1_Seg09
null_rope02_connect R_mid_tent01
Rope2_Seg01 null_rope02_connect
Rope2_Seg02 Rope2_Seg01
Rope2_Seg03 Rope2_Seg02
Rope2_Seg04 Rope2_Seg03
Rope2_Seg05 Rope2_Seg04
Rope2_Seg06 Rope2_Seg05
Rope2_Seg07 Rope2_Seg06
Rope2_Seg09 Rope2_Seg07
R_mid_hand01 Rope2_Seg09
R_mid_hand02 Rope2_Seg09
R_mid_hand03 Rope2_Seg09
spine02 spine01
spine03 spine02
pelvis spine03
null_rope03_connect pelvis
null_rope04_connect pelvis
Rope3_Seg01 null_rope03_connect
Rope3_Seg02 Rope3_Seg01
Rope3_Seg03 Rope3_Seg02
Rope3_Seg04 Rope3_Seg03
Rope3_Seg05 Rope3_Seg04
Rope3_Seg06 Rope3_Seg05
Rope3_Seg07 Rope3_Seg06
Rope3_Seg08 Rope3_Seg07
Rope3_Seg09 Rope3_Seg08
R_rear_hand01 Rope3_Seg09
R_rear_hand02 Rope3_Seg09
R_rear_hand03 Rope3_Seg09
Rope4_Seg01 null_rope04_connect
Rope4_Seg02 Rope4_Seg01
Rope4_Seg03 Rope4_Seg02
Rope4_Seg04 Rope4_Seg03
Rope4_Seg05 Rope4_Seg04
Rope4_Seg06 Rope4_Seg05
Rope4_Seg07 Rope4_Seg06
Rope4_Seg08 Rope4_Seg07
Rope4_Seg09 Rope4_Seg08
L_rear_hand01 Rope4_Seg09
L_rear_hand02 Rope4_Seg09
L_rear_hand03 Rope4_Seg09
[BasePosition]
#SegmentName Tx, Ty, Tz, Rx, Ry, Rz, BoneLength
MASTER 0.000000 0.000000 0.000000 -90.000000 0.000000 0.000000 10.000000 
root 0.000000 0.000000 0.000000 0.000000 0.000000 0.000000 10.000000 
chest 0.000000 0.000000 0.000000 0.000000 0.000000 0.000000 10.000000 
L_mid_tent01 0.000000 0.000000 0.000000 0.000000 0.000000 0.000000 10.000000 
R_mid_tent01 0.000000 0.000000 0.000000 0.000000 0.000000 0.000000 10.000000 
spine01 0.000000 0.000000 0.000000 0.000000 0.000000 0.000000 10.000000 
Bip01_Neck 0.000000 0.000000 0.000000 0.000000 0.000000 0.000000 10.000000 
L_humerus 0.000000 0.000000 0.000000 0.000000 0.000000 0.000000 10.000000 
R_humerus 0.000000 0.000000 0.000000 0.000000 0.000000 0.000000 10.000000 
weapon_bone 0.000000 0.000000 0.000000 0.000000 0.000000 0.000000 10.000000 
Bip01_Head 0.000000 0.000000 0.000000 0.000000 0.000000 0.000000 10.000000 
eye_left_bone 0.000000 0.000000 0.000000 0.000000 0.000000 0.000000 10.000000 
eye_right_bone 0.000000 0.000000 0.000000 0.000000 0.000000 0.000000 10.000000 
L_forearm 0.000000 0.000000 0.000000 0.000000 0.000000 0.000000 10.000000 
L_front_hand 0.000000 0.000000 0.000000 0.000000 0.000000 0.000000 10.000000 
L_weapon_bone 0.000000 0.000000 0.000000 0.000000 0.000000 0.000000 10.000000 
L_front_hand01_01 0.000000 0.000000 0.000000 0.000000 0.000000 0.000000 10.000000 
L_front_hand02_01 0.000000 0.000000 0.000000 0.000000 0.000000 0.000000 10.000000 
L_front_hand03_01 0.000000 0.000000 0.000000 0.000000 0.000000 0.000000 10.000000 
L_front_hand01_02 0.000000 0.000000 0.000000 0.000000 0.000000 0.000000 10.000000 
L_front_hand02_02 0.000000 0.000000 0.000000 0.000000 0.000000 0.000000 10.000000 
L_front_hand03_02 0.000000 0.000000 0.000000 0.000000 0.000000 0.000000 10.000000 
R_forearm 0.000000 0.000000 0.000000 0.000000 0.000000 0.000000 10.000000 
R_front_hand 0.000000 0.000000 0.000000 0.000000 0.000000 0.000000 10.000000 
R_weapon_bone 0.000000 0.000000 0.000000 0.000000 0.000000 0.000000 10.000000 
R_front_hand01_01 0.000000 0.000000 0.000000 0.000000 0.000000 0.000000 10.000000 
R_front_hand02_01 0.000000 0.000000 0.000000 0.000000 0.000000 0.000000 10.000000 
R_front_hand03_01 0.000000 0.000000 0.000000 0.000000 0.000000 0.000000 10.000000 
R_front_hand01_02 0.000000 0.000000 0.000000 0.000000 0.000000 0.000000 10.000000 
R_front_hand02_02 0.000000 0.000000 0.000000 0.000000 0.000000 0.000000 10.000000 
R_front_hand03_02 0.000000 0.000000 0.000000 0.000000 0.000000 0.000000 10.000000 
null_rope01_connect 0.000000 0.000000 0.000000 0.000000 0.000000 0.000000 10.000000 
Rope1_Seg01 0.000000 0.000000 0.000000 0.000000 0.000000 0.000000 10.000000 
Rope1_Seg02 0.000000 0.000000 0.000000 0.000000 0.000000 0.000000 10.000000 
Rope1_Seg03 0.000000 0.000000 0.000000 0.000000 0.000000 0.000000 10.000000 
Rope1_Seg04 0.000000 0.000000 0.000000 0.000000 0.000000 0.000000 10.000000 
Rope1_Seg05 0.000000 0.000000 0.000000 0.000000 0.000000 0.000000 10.000000 
Rope1_Seg06 0.000000 0.000000 0.000000 0.000000 0.000000 0.000000 10.000000 
Rope1_Seg07 0.000000 0.000000 0.000000 0.000000 0.000000 0.000000 10.000000 
Rope1_Seg09 0.000000 0.000000 0.000000 0.000000 0.000000 0.000000 10.000000 
L_mid_hand01 0.000000 0.000000 0.000000 0.000000 0.000000 0.000000 10.000000 
L_mid_hand02 0.000000 0.000000 0.000000 0.000000 0.000000 0.000000 10.000000 
L_mid_hand03 0.000000 0.000000 0.000000 0.000000 0.000000 0.000000 10.000000 
null_rope02_connect 0.000000 0.000000 0.000000 0.000000 0.000000 0.000000 10.000000 
Rope2_Seg01 0.000000 0.000000 0.000000 0.000000 0.000000 0.000000 10.000000 
Rope2_Seg02 0.000000 0.000000 0.000000 0.000000 0.000000 0.000000 10.000000 
Rope2_Seg03 0.000000 0.000000 0.000000 0.000000 0.000000 0.000000 10.000000 
Rope2_Seg04 0.000000 0.000000 0.000000 0.000000 0.000000 0.000000 10.000000 
Rope2_Seg05 0.000000 0.000000 0.000000 0.000000 0.000000 0.000000 10.000000 
Rope2_Seg06 0.000000 0.000000 0.000000 0.000000 0.000000 0.000000 10.000000 
Rope2_Seg07 0.000000 0.000000 0.000000 0.000000 0.000000 0.000000 10.000000 
Rope2_Seg09 0.000000 0.000000 0.000000 0.000000 0.000000 0.000000 10.000000 
R_mid_hand01 0.000000 0.000000 0.000000 0.000000 0.000000 0.000000 10.000000 
R_mid_hand02 0.000000 0.000000 0.000000 0.000000 0.000000 0.000000 10.000000 
R_mid_hand03 0.000000 0.000000 0.000000 0.000000 0.000000 0.000000 10.000000 
spine02 0.000000 0.000000 0.000000 0.000000 0.000000 0.000000 10.000000 
spine03 0.000000 0.000000 0.000000 0.000000 0.000000 0.000000 10.000000 
pelvis 0.000000 0.000000 0.000000 0.000000 0.000000 0.000000 10.000000 
null_rope03_connect 0.000000 0.000000 0.000000 0.000000 0.000000 0.000000 10.000000 
null_rope04_connect 0.000000 0.000000 0.000000 0.000000 0.000000 0.000000 10.000000 
Rope3_Seg01 0.000000 0.000000 0.000000 0.000000 0.000000 0.000000 10.000000 
Rope3_Seg02 0.000000 0.000000 0.000000 0.000000 0.000000 0.000000 10.000000 
Rope3_Seg03 0.000000 0.000000 0.000000 0.000000 0.000000 0.000000 10.000000 
Rope3_Seg04 0.000000 0.000000 0.000000 0.000000 0.000000 0.000000 10.000000 
Rope3_Seg05 0.000000 0.000000 0.000000 0.000000 0.000000 0.000000 10.000000 
Rope3_Seg06 0.000000 0.000000 0.000000 0.000000 0.000000 0.000000 10.000000 
Rope3_Seg07 0.000000 0.000000 0.000000 0.000000 0.000000 0.000000 10.000000 
Rope3_Seg08 0.000000 0.000000 0.000000 0.000000 0.000000 0.000000 10.000000 
Rope3_Seg09 0.000000 0.000000 0.000000 0.000000 0.000000 0.000000 10.000000 
R_rear_hand01 0.000000 0.000000 0.000000 0.000000 0.000000 0.000000 10.000000 
R_rear_hand02 0.000000 0.000000 0.000000 0.000000 0.000000 0.000000 10.000000 
R_rear_hand03 0.000000 0.000000 0.000000 0.000000 0.000000 0.000000 10.000000 
Rope4_Seg01 0.000000 0.000000 0.000000 0.000000 0.000000 0.000000 10.000000 
Rope4_Seg02 0.000000 0.000000 0.000000 0.000000 0.000000 0.000000 10.000000 
Rope4_Seg03 0.000000 0.000000 0.000000 0.000000 0.000000 0.000000 10.000000 
Rope4_Seg04 0.000000 0.000000 0.000000 0.000000 0.000000 0.000000 10.000000 
Rope4_Seg05 0.000000 0.000000 0.000000 0.000000 0.000000 0.000000 10.000000 
Rope4_Seg06 0.000000 0.000000 0.000000 0.000000 0.000000 0.000000 10.000000 
Rope4_Seg07 0.000000 0.000000 0.000000 0.000000 0.000000 0.000000 10.000000 
Rope4_Seg08 0.000000 0.000000 0.000000 0.000000 0.000000 0.000000 10.000000 
Rope4_Seg09 0.000000 0.000000 0.000000 0.000000 0.000000 0.000000 10.000000 
L_rear_hand01 0.000000 0.000000 0.000000 0.000000 0.000000 0.000000 10.000000 
L_rear_hand02 0.000000 0.000000 0.000000 0.000000 0.000000 0.000000 10.000000 
L_rear_hand03 0.000000 0.000000 0.000000 0.000000 0.000000 0.000000 10.000000 
#Beginning of Data. Separated by tabs
#Fr	Tx	Ty	Tz	Rx	Ry	Rz	SF
[MASTER]
17 -0.000507 3446.855957 0.000000 0.001660 0.001660 0.001660 3446.855957
18 -0.000544 3690.958740 0.000000 0.001660 0.001660 0.001660 3690.958740
[root]
17 -92.650009 259.261353 1160.401733 -93.702461 0.946185 -81.413742 1192.615845
18 -100.738663 281.295654 1257.063232 -95.220093 0.914748 -78.954140 1292.084961
[chest]
17 -84.512650 -34.090519 0.000000 5.262309 -2.259597 170.783386 91.129311
18 -84.512650 -34.090519 0.000000 5.114799 -2.602436 174.532120 91.129311
[L_mid_tent01]
17 27.299356 22.178329 -249.918472 -31.260574 8.901038 15.392897 252.381409
18 27.299349 22.178379 -249.918503 -31.505457 9.283570 13.533060 252.381439
[R_mid_tent01]
17 23.228794 24.509907 226.238495 0.089202 -73.357941 -104.040810 228.744751
18 23.228794 24.509907 226.238495 71.470566 -56.288067 -177.427780 228.744751
[spine01]
17 -0.361383 -0.195265 0.000000 0.468225 0.192066 19.386187 0.410763
18 -0.361383 -0.195265 0.000000 0.445167 0.182302 19.512447 0.410763
[Bip01_Neck]
17 165.484543 71.581718 0.000119 175.896118 1.177290 24.871183 180.302734
18 165.484543 71.581718 0.000119 175.896118 1.177290 24.871183 180.302734
[L_humerus]
17 -13.983130 -135.272980 -120.471481 -3.148604 65.102470 86.435524 181.680161
18 -13.983130 -135.272980 -120.471481 -3.227751 65.233719 86.347893 181.680161
[R_humerus]
17 -13.983309 -135.273102 125.287651 89.078491 -14.681051 -3.931287 184.909012
18 -13.983309 -135.273102 125.287651 88.296913 -11.785517 -2.371213 184.909012
[weapon_bone]
17 235.964890 -300.705902 0.000000 0.000000 -89.951546 -128.212341 382.234833
18 235.964890 -300.705902 0.000000 0.000000 -89.951546 -128.212341 382.234833
[Bip01_Head]
17 209.190063 165.528748 -4.490387 -32.749310 5.844896 -62.457764 266.796570
18 210.854507 170.273468 -5.178851 -37.308117 5.844815 -62.457417 271.071014
[eye_left_bone]
17 -24.626970 125.451866 -64.772606 0.000000 -90.000000 -99.840431 143.318359
18 -24.626970 125.451866 -64.772606 0.000000 -90.000000 -99.840431 143.318359
[eye_right_bone]
17 -24.626970 125.451866 64.327362 0.000000 -89.960434 80.159386 143.117676
18 -24.626970 125.451866 64.327362 0.000000 -89.960434 80.159386 143.117676
[L_forearm]
17 322.776093 0.000000 -0.000119 0.000272 -0.002331 -103.296341 322.776093
18 322.776093 0.000000 -0.000119 0.000277 -0.002331 -103.577332 322.776093
[L_front_hand]
17 241.149185 -0.042021 -3.300071 -178.667953 -1.835447 -27.422350 241.171753
18 241.149185 -0.042021 -3.300071 -178.667953 -1.835447 -27.422342 241.171753
[L_weapon_bone]
17 156.183838 0.000000 0.000000 0.000014 0.000007 0.000001 156.183838
18 156.183838 0.000000 0.000000 0.000014 0.000007 0.000001 156.183838
[L_front_hand01_01]
17 86.095154 20.947098 -0.655860 -0.366594 -0.477154 75.385574 88.609184
18 86.095154 20.947098 -0.655860 -0.366594 -0.477154 75.385574 88.609184
[L_front_hand02_01]
17 86.935165 -11.437475 24.513514 154.403519 -59.888931 -61.371990 91.046425
18 86.935165 -11.437475 24.513514 154.403519 -59.888931 -61.371990 91.046425
[L_front_hand03_01]
17 86.637497 -14.123976 -20.424902 -153.913849 58.118122 -62.702866 90.126129
18 86.637497 -14.123976 -20.424902 -153.913849 58.118122 -62.702866 90.126129
[L_front_hand01_02]
17 71.020905 -0.000179 0.000030 0.000334 -0.002323 -106.379684 71.020905
18 71.020905 -0.000179 0.000030 0.000334 -0.002323 -106.379684 71.020905
[L_front_hand02_02]
17 71.020927 -0.000119 0.000060 0.000334 -0.002323 -106.379684 71.020927
18 71.020927 -0.000119 0.000060 0.000334 -0.002323 -106.379684 71.020927
[L_front_hand03_02]
17 71.020905 -0.000060 0.000060 0.000334 -0.002323 -106.379684 71.020905
18 71.020905 -0.000060 0.000060 0.000334 -0.002323 -106.379684 71.020905
[R_forearm]
17 322.776428 -0.000060 0.000030 -0.020765 -0.210394 4.127317 322.776428
18 322.776428 -0.000060 0.000030 -0.024824 -0.209954 6.340373 322.776428
[R_front_hand]
17 238.847015 -0.006795 2.210259 43.569859 0.333501 -3.108936 238.857239
18 238.847015 -0.006795 2.210259 115.722260 -0.096420 -5.330452 238.857239
[R_weapon_bone]
17 155.664093 0.002503 -0.000030 0.003487 0.001180 -90.988930 155.664078
18 155.664093 0.002503 -0.000030 0.003487 0.001180 -90.988930 155.664078
[R_front_hand01_01]
17 87.624611 14.231146 22.918642 -154.633499 -59.950634 61.746063 91.683487
18 87.624611 14.231146 22.918642 -154.633072 -59.950523 61.745552 91.683487
[R_front_hand02_01]
17 89.356956 14.367283 -19.491137 154.602661 58.302849 63.744389 92.579636
18 89.356956 14.367283 -19.491137 154.602280 58.302753 63.743923 92.579636
[R_front_hand03_01]
17 87.286232 -22.307278 -0.143439 0.162155 -0.423168 -75.767921 90.091743
18 87.286232 -22.307278 -0.143439 0.162153 -0.423169 -75.767654 90.091743
[R_front_hand01_02]
17 71.020905 0.000060 0.000119 0.001777 0.001534 8.377220 71.020905
18 71.020905 0.000060 0.000119 0.001777 0.001534 8.377220 71.020905
[R_front_hand02_02]
17 71.020844 -0.000030 -0.000119 0.001777 0.001534 8.377220 71.020836
18 71.020844 -0.000030 -0.000119 0.001777 0.001534 8.377220 71.020836
[R_front_hand03_02]
17 71.020905 0.000000 0.000030 0.001777 0.001534 8.377220 71.020905
18 71.020905 0.000000 0.000030 0.001777 0.001534 8.377220 71.020905
[null_rope01_connect]
17 328.732483 0.000000 -0.000238 166.582657 -52.765778 -92.636520 328.732483
18 328.732483 0.000000 -0.000238 166.320236 -50.759304 -89.549957 328.732483
[Rope1_Seg01]
17 0.000000 0.000000 0.000000 91.243858 4.309727 -141.020935 0.000000
18 0.000000 0.000000 0.000000 84.691216 1.545772 -138.550430 0.000000
[Rope1_Seg02]
17 139.999863 -0.000179 0.000000 26.108423 -25.493225 -5.155938 139.999863
18 139.999863 -0.000179 0.000000 23.893751 -24.600798 -3.896022 139.999863
[Rope1_Seg03]
17 139.999924 0.000060 -0.000060 -0.264769 -14.448060 13.089982 139.999924
18 139.999924 0.000060 -0.000060 0.820503 -18.324106 13.250663 139.999924
[Rope1_Seg04]
17 139.999924 -0.000060 -0.000119 6.878478 -27.835361 -3.506441 139.999924
18 139.999924 -0.000060 -0.000119 3.509913 -25.560730 1.036973 139.999924
[Rope1_Seg05]
17 139.999832 0.000119 -0.000060 1.803615 -50.601624 -15.420889 139.999832
18 139.999832 0.000119 -0.000060 -4.319041 -56.034145 -13.295749 139.999832
[Rope1_Seg06]
17 139.999954 0.000119 -0.000060 -4.780002 -13.876615 -3.855369 139.999954
18 139.999954 0.000119 -0.000060 -8.115992 -16.327242 -5.537502 139.999954
[Rope1_Seg07]
17 139.999985 0.000060 0.000000 -2.477166 -5.405317 -1.936723 139.999985
18 139.999985 0.000060 0.000000 -3.576028 -5.478451 -2.665984 139.999985
[Rope1_Seg09]
17 121.602913 0.000119 -0.000089 -89.793175 -1.359789 0.847147 121.602913
18 121.602913 0.000119 -0.000089 -89.793175 -1.359789 0.847147 121.602913
[L_mid_hand01]
17 103.859421 1.038730 8.195221 114.519325 -53.312557 -20.621624 104.187431
18 103.859421 1.038730 8.195221 114.519264 -53.312695 -20.621523 104.187431
[L_mid_hand02]
17 105.572853 -4.139662 -10.864139 -155.067673 38.166626 -52.448818 106.211075
18 105.572853 -4.139662 -10.864139 -155.067673 38.166626 -52.448818 106.211075
[L_mid_hand03]
17 104.641464 17.579376 -3.913581 -10.970130 15.317461 57.626949 106.179977
18 104.641464 17.579376 -3.913581 -10.970130 15.317461 57.626949 106.179977
[null_rope02_connect]
17 328.732849 0.000179 -0.000119 -169.319534 -14.792912 9.607128 328.732849
18 328.732849 0.000179 -0.000119 -169.235672 -7.256303 44.386726 328.732849
[Rope2_Seg01]
17 0.000041 0.000305 0.000120 78.857582 -5.343042 -78.353081 0.000330
18 0.000044 0.000319 0.000118 37.092724 -11.272532 -49.498714 0.000343
[Rope2_Seg02]
17 139.999741 -0.000060 -0.000119 -9.444903 7.430065 5.546721 139.999756
18 139.999741 -0.000060 -0.000119 -43.051914 16.700464 38.801613 139.999756
[Rope2_Seg03]
17 140.000107 0.000030 0.000000 -34.021114 19.531240 22.726416 140.000107
18 140.000107 0.000030 0.000000 -16.583261 -20.295586 39.381840 140.000107
[Rope2_Seg04]
17 139.999802 0.000000 -0.000060 -29.303513 0.162663 54.379017 139.999802
18 139.999802 0.000000 -0.000060 0.195105 -4.085433 18.594742 139.999802
[Rope2_Seg05]
17 139.999985 -0.000060 0.000119 -3.535645 -4.953281 27.713650 139.999985
18 139.999985 -0.000060 0.000119 4.167791 2.632568 19.109339 139.999985
[Rope2_Seg06]
17 139.999893 -0.000030 -0.000119 6.565885 -0.270451 38.898853 139.999893
18 139.999893 -0.000030 -0.000119 2.605202 0.883351 9.898461 139.999893
[Rope2_Seg07]
17 139.999893 0.000060 -0.000060 5.960444 0.235795 17.018347 139.999893
18 139.999893 0.000060 -0.000060 1.694625 0.591739 5.636578 139.999893
[Rope2_Seg09]
17 121.338966 0.000089 -0.000060 0.212516 0.548522 -1.505822 121.338966
18 121.338966 0.000089 -0.000060 82.988831 0.547565 -1.506202 121.338966
[R_mid_hand01]
17 104.680779 11.144459 -10.335981 -19.101976 44.310642 66.357697 105.778534
18 104.680779 11.144459 -10.335981 -21.017220 43.585693 63.601036 105.778534
[R_mid_hand02]
17 104.070427 2.443552 8.231699 53.483910 -65.365456 34.478851 104.424065
18 104.070427 2.443552 8.231699 56.043774 -63.638390 31.643208 104.424065
[R_mid_hand03]
17 106.028137 -11.221827 -5.996406 -176.256592 15.372275 -73.420364 106.788818
18 106.028137 -11.221827 -5.996406 -175.674561 15.224449 -71.231316 106.788818
[spine02]
17 129.756927 0.001550 0.000119 -0.260412 -14.408349 -4.278499 129.756927
18 129.756927 0.001550 0.000119 -0.276219 -14.702661 -4.187370 129.756927
[spine03]
17 78.557846 0.093875 -5.446129 1.904847 3.899209 16.980013 78.746460
18 78.557945 0.093744 -5.445232 1.905870 3.878522 17.024633 78.746490
[pelvis]
17 169.435242 0.051022 0.000000 -0.057990 -0.406060 7.035760 169.435257
18 169.435242 0.051022 0.000000 -0.058393 -0.393539 7.374441 169.435257
[null_rope03_connect]
17 -1.257226 -2.466202 137.391083 89.593132 -71.739708 -39.924946 137.418976
18 -1.257226 -2.466202 137.391083 93.542877 -68.923225 -44.462818 137.418976
[null_rope04_connect]
17 -1.259640 -2.480268 -137.844437 89.593132 -71.739708 -39.924946 137.872513
18 -1.259640 -2.480268 -137.844437 93.542877 -68.923225 -44.462818 137.872513
[Rope3_Seg01]
17 0.000043 -0.000286 0.000000 -132.838715 -29.568264 -77.301407 0.000289
18 0.000041 -0.000301 0.000000 -129.896362 -16.862169 -82.707069 0.000304
[Rope3_Seg02]
17 139.999924 -0.000119 0.000060 0.833483 -5.817510 -3.790185 139.999924
18 139.999924 -0.000119 0.000060 0.602013 -6.826161 -5.570625 139.999924
[Rope3_Seg03]
17 139.999924 -0.000119 0.000119 2.379197 -9.749333 -6.246136 139.999924
18 139.999924 -0.000119 0.000119 2.296637 -11.409698 -9.324875 139.999924
[Rope3_Seg04]
17 139.999924 0.000119 0.000000 8.697351 -17.575802 -8.737826 139.999924
18 139.999924 0.000119 0.000000 7.580210 -17.406473 -12.838145 139.999924
[Rope3_Seg05]
17 139.999924 -0.000238 0.000060 22.097075 -22.076130 -6.100174 139.999924
18 139.999924 -0.000238 0.000060 14.473556 -16.645479 -9.668437 139.999924
[Rope3_Seg06]
17 139.999893 -0.000119 -0.000060 61.737438 -29.608942 -10.005446 139.999893
18 139.999893 -0.000119 -0.000060 57.384033 -24.357679 -11.477759 139.999893
[Rope3_Seg07]
17 139.999771 0.000060 -0.000119 49.487640 -26.485294 19.945751 139.999771
18 139.999771 0.000060 -0.000119 61.996410 -29.945496 18.527090 139.999771
[Rope3_Seg08]
17 139.999985 -0.000060 0.000000 6.172437 0.712738 11.236764 139.999985
18 139.999985 -0.000060 0.000000 6.655759 1.657224 13.241571 139.999985
[Rope3_Seg09]
17 90.185997 -0.000179 -0.000060 70.093842 -1.359804 -0.849096 90.185997
18 90.185997 -0.000179 -0.000060 71.264023 -1.362587 -0.846860 90.185997
[R_rear_hand01]
17 103.366196 -6.073594 -10.757982 -156.049316 6.070419 -2.795869 104.101845
18 103.366196 -6.073594 -10.757982 -156.049316 6.070419 -2.795869 104.101845
[R_rear_hand02]
17 100.509819 12.039542 -7.992327 -38.708435 1.958051 5.461186 101.543350
18 100.509819 12.039542 -7.992327 -38.708439 1.958052 5.461187 101.543350
[R_rear_hand03]
17 101.539970 5.215704 5.435467 84.307632 -2.361033 4.099037 101.819031
18 101.539970 5.215704 5.435467 84.307632 -2.361033 4.099039 101.819031
[Rope4_Seg01]
17 0.000079 -0.000463 0.000000 32.804996 -26.254444 -70.686638 0.000470
18 0.000078 -0.000499 0.000000 33.357044 -24.422792 -70.662689 0.000505
[Rope4_Seg02]
17 139.999985 0.000060 0.000119 0.770623 -8.043461 -5.637414 139.999985
18 139.999985 0.000060 0.000119 -0.471838 -8.794337 -1.842065 139.999985
[Rope4_Seg03]
17 139.999924 0.000000 -0.000238 0.719223 -9.598668 -6.703148 139.999924
18 139.999924 0.000000 -0.000238 -0.009945 -10.813387 -2.396967 139.999924
[Rope4_Seg04]
17 139.999985 0.000000 0.000119 -0.041803 -6.268355 -8.533134 139.999985
18 139.999985 0.000000 0.000119 0.445305 -9.286697 -4.054502 139.999985
[Rope4_Seg05]
17 139.999802 -0.000060 -0.000119 0.215806 -8.676100 -5.502433 139.999802
18 139.999802 -0.000060 -0.000119 0.814430 -9.375383 -2.526624 139.999802
[Rope4_Seg06]
17 139.999924 0.000000 0.000060 7.767870 -25.721680 -3.828378 139.999924
18 139.999924 0.000000 0.000060 7.307881 -23.918297 1.455874 139.999924
[Rope4_Seg07]
17 139.999802 0.000000 0.000000 44.144257 -34.161579 0.413368 139.999802
18 139.999802 0.000000 0.000000 38.055096 -37.287933 10.211460 139.999802
[Rope4_Seg08]
17 139.999924 0.000000 0.000119 40.587273 -11.070286 10.202415 139.999924
18 139.999924 0.000000 0.000119 25.766876 -10.051881 13.424487 139.999924
[Rope4_Seg09]
17 90.185791 0.000060 0.000060 -135.617828 2.228885 0.850567 90.185791
18 90.185791 0.000060 0.000060 -135.617828 2.228885 0.850567 90.185791
[L_rear_hand01]
17 101.696655 -8.392275 -7.654577 -19.915020 -33.950905 119.950104 102.329041
18 101.696655 -8.392275 -7.654577 -19.915020 -33.950905 119.950104 102.329041
[L_rear_hand02]
17 102.726799 -1.568258 5.773216 77.862221 61.878510 165.399200 102.900848
18 102.726799 -1.568258 5.773216 77.862221 61.878510 165.399200 102.900848
[L_rear_hand03]
17 104.552910 9.721220 -10.420293 -173.099182 -23.740307 -117.327896 105.519653
18 104.552910 9.721220 -10.420293 -173.099182 -23.740307 -117.327896 105.519653
